<?xml version="1.0" encoding="UTF-8" standalone="no"?>
<!DOCTYPE svg PUBLIC "-//W3C//DTD SVG 1.1//EN"
 "http://www.w3.org/Graphics/SVG/1.1/DTD/svg11.dtd">
<!-- Generated by graphviz version 2.28.0 (20120524.1256)
 -->
<!-- Title: G Pages: 1 -->
<svg width="140pt" height="294pt"
 viewBox="0.00 0.00 140.00 294.00" xmlns="http://www.w3.org/2000/svg" xmlns:xlink="http://www.w3.org/1999/xlink">
<g id="graph1" class="graph" transform="scale(1 1) rotate(0) translate(4 290)">
<title>G</title>
<polygon fill="white" stroke="white" points="-4,5 -4,-290 137,-290 137,5 -4,5"/>
<g id="graph2" class="cluster"><title>cluster_nx</title>
<polyline fill="none" stroke="gray" points="20,-8 112,-8 "/>
<path fill="none" stroke="gray" d="M112,-8C118,-8 124,-14 124,-20"/>
<polyline fill="none" stroke="gray" points="124,-20 124,-266 "/>
<path fill="none" stroke="gray" d="M124,-266C124,-272 118,-278 112,-278"/>
<polyline fill="none" stroke="gray" points="112,-278 20,-278 "/>
<path fill="none" stroke="gray" d="M20,-278C14,-278 8,-272 8,-266"/>
<polyline fill="none" stroke="gray" points="8,-266 8,-20 "/>
<path fill="none" stroke="gray" d="M8,-20C8,-14 14,-8 20,-8"/>
<text text-anchor="middle" x="66" y="-265.2" font-family="Times,serif" font-size="11.00" fill="gray">nx</text>
</g>
<g id="graph3" class="cluster"><title>cluster_nx\core</title>
<polyline fill="none" stroke="gray" points="28,-16 104,-16 "/>
<path fill="none" stroke="gray" d="M104,-16C110,-16 116,-22 116,-28"/>
<polyline fill="none" stroke="gray" points="116,-28 116,-238 "/>
<path fill="none" stroke="gray" d="M116,-238C116,-244 110,-250 104,-250"/>
<polyline fill="none" stroke="gray" points="104,-250 28,-250 "/>
<path fill="none" stroke="gray" d="M28,-250C22,-250 16,-244 16,-238"/>
<polyline fill="none" stroke="gray" points="16,-238 16,-28 "/>
<path fill="none" stroke="gray" d="M16,-28C16,-22 22,-16 28,-16"/>
<text text-anchor="middle" x="66" y="-237.2" font-family="Times,serif" font-size="11.00" fill="gray">core</text>
</g>
<!-- \\nx\\core\\Response -->
<g id="node3" class="node"><title>\\nx\\core\\Response</title>
<a xlink:href="Response.html" xlink:title="Response" target="_parent">
<polygon fill="none" stroke="black" points="101.5,-222 30.5,-222 30.5,-186 101.5,-186 101.5,-222"/>
<text text-anchor="middle" x="66" y="-201.2" font-family="Courier,monospace" font-size="11.00">Response</text>
</a>
</g>
<!-- \\nx\\core\\Dispatcher -->
<g id="node4" class="node"><title>\\nx\\core\\Dispatcher</title>
<a xlink:href="Dispatcher.html" xlink:title="Dispatcher" target="_parent">
<polygon fill="none" stroke="black" points="108,-168 24,-168 24,-132 108,-132 108,-168"/>
<text text-anchor="middle" x="66" y="-147.2" font-family="Courier,monospace" font-size="11.00">Dispatcher</text>
</a>
</g>
<!-- \\nx\\core\\Router -->
<g id="node5" class="node"><title>\\nx\\core\\Router</title>
<a xlink:href="Router.html" xlink:title="Router" target="_parent">
<polygon fill="none" stroke="black" points="94.5,-114 37.5,-114 37.5,-78 94.5,-78 94.5,-114"/>
<text text-anchor="middle" x="66" y="-93.2" font-family="Courier,monospace" font-size="11.00">Router</text>
</a>
</g>
<!-- \\nx\\core\\Request -->
<g id="node6" class="node"><title>\\nx\\core\\Request</title>
<a xlink:href="Request.html" xlink:title="Request" target="_parent">
<polygon fill="none" stroke="black" points="98,-60 34,-60 34,-24 98,-24 98,-60"/>
<text text-anchor="middle" x="66" y="-39.2" font-family="Courier,monospace" font-size="11.00">Request</text>
</a>
</g>
</g>
</svg>
